<svg xmlns="http://www.w3.org/2000/svg" version="1.1" style="font-family:Lato, &#x27;Helvetica Neue&#x27;, Helvetica, Arial, &#x27;Liberation Sans&#x27;, sans-serif;font-size:18px;background-color:#ffffff;text-rendering:geometricPrecision;-webkit-font-smoothing:antialiased" width="850" height="600" viewBox="0 0 850 600"><defs><style>@import url(https://ourworldindata.org/fonts.css)</style></defs><defs><pattern id="noDataPattern" patternUnits="userSpaceOnUse" width="4" height="4" patternTransform="rotate(-45 2 2)"><path d="M -1,2 l 6,0" stroke="#ccc" stroke-width="0.7"></path></pattern></defs><rect class="background-fill" fill="#ffffff" width="850" height="600"></rect><g id="header" class="HeaderView"><g id="logo" transform="translate(769, 16) scale(1)"><svg className="owidLogo" xmlns="http://www.w3.org/2000/svg" width="65" height="36" viewBox="0 0 65 36"  fill="none"><path fill="#002147" d="M0 0h64.8v36H0z"/><path fill="#CE261E" d="M0 33.3h64.8V36H0z"/><path fill="#fff" d="M13.796 10.575c0 .636-.106 1.226-.318 1.77a4.193 4.193 0 0 1-.894 1.404 4.084 4.084 0 0 1-1.386.93c-.54.22-1.138.33-1.794.33-.656 0-1.256-.11-1.8-.33a4.149 4.149 0 0 1-1.392-.93 4.193 4.193 0 0 1-.894-1.404A4.833 4.833 0 0 1 5 10.575c0-.636.106-1.224.318-1.764a4.18 4.18 0 0 1 .894-1.41 4.076 4.076 0 0 1 1.392-.924 4.684 4.684 0 0 1 1.8-.336c.656 0 1.254.112 1.794.336.54.224 1.002.534 1.386.93.384.392.682.86.894 1.404.212.54.318 1.128.318 1.764Zm-1.656 0c0-.476-.064-.902-.192-1.278a2.671 2.671 0 0 0-.54-.966 2.332 2.332 0 0 0-.864-.606 2.94 2.94 0 0 0-1.14-.21c-.424 0-.806.07-1.146.21-.34.14-.63.342-.87.606a2.742 2.742 0 0 0-.546.966 3.955 3.955 0 0 0-.192 1.278c0 .476.064.904.192 1.284.128.376.31.696.546.96.24.26.53.46.87.6.34.14.722.21 1.146.21.424 0 .804-.07 1.14-.21.34-.14.628-.34.864-.6.236-.264.416-.584.54-.96a4.01 4.01 0 0 0 .192-1.284ZM16.104 8.757v3.912c0 .376.086.668.258.876.176.204.438.306.786.306.256 0 .496-.056.72-.168a2.58 2.58 0 0 0 .636-.474V8.757h1.482v6.156h-.906c-.192 0-.318-.09-.378-.27l-.102-.492a4.65 4.65 0 0 1-.396.354 2.577 2.577 0 0 1-.438.27 2.35 2.35 0 0 1-.498.168 2.345 2.345 0 0 1-.57.066c-.336 0-.634-.056-.894-.168a1.821 1.821 0 0 1-.648-.486 2.157 2.157 0 0 1-.402-.738 3.233 3.233 0 0 1-.132-.948V8.757h1.482ZM21.328 14.913V8.757h.87c.152 0 .258.028.318.084.06.056.1.152.12.288l.09.744c.22-.38.478-.68.774-.9.296-.22.628-.33.996-.33.304 0 .556.07.756.21l-.192 1.11c-.012.072-.038.124-.078.156a.278.278 0 0 1-.162.042 1.01 1.01 0 0 1-.246-.042 1.646 1.646 0 0 0-.414-.042c-.308 0-.572.086-.792.258-.22.168-.406.416-.558.744v3.834h-1.482ZM27.347 6.237h1.356a.57.57 0 0 1 .348.102c.096.064.16.152.192.264l1.476 5.19c.036.128.068.268.096.42.032.148.062.306.09.474a5.968 5.968 0 0 1 .228-.894l1.704-5.19a.575.575 0 0 1 .186-.252.543.543 0 0 1 .348-.114h.474a.57.57 0 0 1 .348.102.497.497 0 0 1 .192.264l1.692 5.19c.088.256.164.54.228.852.028-.156.056-.306.084-.45.032-.144.064-.278.096-.402l1.476-5.19c.028-.1.09-.186.186-.258a.563.563 0 0 1 .348-.108h1.266l-2.694 8.676h-1.458l-1.896-5.928-.078-.246a9.504 9.504 0 0 1-.072-.282c-.024.1-.05.194-.078.282-.024.088-.048.17-.072.246l-1.914 5.928H30.04l-2.694-8.676ZM42.771 8.661c.46 0 .876.074 1.248.222.376.148.696.358.96.63s.468.604.612.996c.144.392.216.83.216 1.314 0 .488-.072.928-.216 1.32a2.85 2.85 0 0 1-.612 1.002 2.653 2.653 0 0 1-.96.636 3.35 3.35 0 0 1-1.248.222c-.46 0-.878-.074-1.254-.222a2.712 2.712 0 0 1-.966-.636 2.922 2.922 0 0 1-.618-1.002 3.807 3.807 0 0 1-.216-1.32c0-.484.072-.922.216-1.314.148-.392.354-.724.618-.996.268-.272.59-.482.966-.63a3.397 3.397 0 0 1 1.254-.222Zm0 5.202c.512 0 .89-.172 1.134-.516.248-.344.372-.848.372-1.512s-.124-1.17-.372-1.518c-.244-.348-.622-.522-1.134-.522-.52 0-.904.176-1.152.528-.248.348-.372.852-.372 1.512s.124 1.164.372 1.512c.248.344.632.516 1.152.516ZM46.723 14.913V8.757h.87c.152 0 .258.028.318.084.06.056.1.152.12.288l.09.744c.22-.38.478-.68.774-.9.296-.22.628-.33.996-.33.304 0 .556.07.756.21l-.192 1.11c-.012.072-.038.124-.078.156a.278.278 0 0 1-.162.042 1.01 1.01 0 0 1-.246-.042 1.646 1.646 0 0 0-.414-.042c-.308 0-.572.086-.792.258-.22.168-.406.416-.558.744v3.834h-1.482ZM52.96 5.997v8.916h-1.482V5.997h1.482ZM58.732 14.913c-.192 0-.318-.09-.378-.27l-.12-.594a3.68 3.68 0 0 1-.402.39c-.14.116-.292.216-.456.3-.16.084-.334.148-.522.192a2.372 2.372 0 0 1-.6.072c-.336 0-.644-.07-.924-.21a2.098 2.098 0 0 1-.726-.606 3.033 3.033 0 0 1-.468-.99 5.072 5.072 0 0 1-.162-1.344c0-.456.062-.88.186-1.272s.302-.732.534-1.02c.232-.288.51-.512.834-.672a2.384 2.384 0 0 1 1.092-.246 2.103 2.103 0 0 1 1.536.606V5.997h1.482v8.916h-.906Zm-1.974-1.086c.308 0 .57-.064.786-.192.216-.128.42-.31.612-.546v-2.76a1.452 1.452 0 0 0-.552-.432 1.597 1.597 0 0 0-.636-.126c-.224 0-.428.042-.612.126a1.21 1.21 0 0 0-.462.384c-.124.168-.22.384-.288.648-.068.26-.102.568-.102.924 0 .36.028.666.084.918.06.248.144.452.252.612.108.156.24.27.396.342.156.068.33.102.522.102ZM16.331 20.757v6.156H14.85v-6.156h1.481Zm.223-1.794a.844.844 0 0 1-.078.36.963.963 0 0 1-.21.294.995.995 0 0 1-.3.204.963.963 0 0 1-.372.072.948.948 0 0 1-.367-.072 1.018 1.018 0 0 1-.498-.498.963.963 0 0 1 0-.732.995.995 0 0 1 .205-.3.929.929 0 0 1 .293-.198.899.899 0 0 1 .738 0 .912.912 0 0 1 .3.198.943.943 0 0 1 .288.672ZM17.771 26.913v-6.156h.906c.192 0 .318.09.378.27l.102.486a2.934 2.934 0 0 1 .828-.618c.156-.076.322-.134.498-.174.176-.04.368-.06.576-.06.336 0 .634.058.894.174.26.112.476.272.648.48.176.204.308.45.396.738.092.284.138.598.138.942v3.918h-1.482v-3.918c0-.376-.088-.666-.264-.87-.172-.208-.432-.312-.78-.312-.256 0-.496.058-.72.174a2.58 2.58 0 0 0-.636.474v4.452h-1.482ZM34.22 22.575c0 .636-.106 1.22-.318 1.752-.212.532-.51.99-.894 1.374a4 4 0 0 1-1.386.894 4.87 4.87 0 0 1-1.794.318h-3.312v-8.676h3.312a4.79 4.79 0 0 1 1.794.324 4 4 0 0 1 1.386.894c.384.38.682.836.894 1.368.212.532.318 1.116.318 1.752Zm-1.65 0c0-.476-.064-.902-.192-1.278a2.68 2.68 0 0 0-.546-.96 2.332 2.332 0 0 0-.864-.606 2.94 2.94 0 0 0-1.14-.21h-1.686v6.108h1.686c.424 0 .804-.07 1.14-.21.34-.14.628-.34.864-.6a2.75 2.75 0 0 0 .546-.96 4.01 4.01 0 0 0 .192-1.284ZM39.98 26.913h-.665c-.14 0-.25-.02-.33-.06-.08-.044-.14-.13-.18-.258l-.132-.438c-.156.14-.31.264-.462.372a2.804 2.804 0 0 1-.462.264c-.16.072-.33.126-.51.162-.18.036-.38.054-.6.054-.26 0-.5-.034-.72-.102a1.618 1.618 0 0 1-.57-.318 1.448 1.448 0 0 1-.366-.522 1.852 1.852 0 0 1-.132-.726c0-.232.06-.46.18-.684.124-.228.328-.432.612-.612.284-.184.662-.336 1.134-.456.472-.12 1.058-.188 1.758-.204v-.36c0-.412-.088-.716-.264-.912-.172-.2-.424-.3-.756-.3a1.837 1.837 0 0 0-1.02.276c-.116.068-.224.13-.324.186a.664.664 0 0 1-.33.084.429.429 0 0 1-.258-.078.614.614 0 0 1-.174-.192l-.27-.474c.708-.648 1.562-.972 2.562-.972.36 0 .68.06.96.18.284.116.524.28.72.492.196.208.344.458.444.75.104.292.156.612.156.96v3.888Zm-2.88-.924c.153 0 .293-.014.42-.042.129-.028.249-.07.36-.126.117-.056.227-.124.33-.204.109-.084.217-.182.325-.294v-1.038c-.432.02-.794.058-1.086.114-.288.052-.52.12-.696.204a.923.923 0 0 0-.378.294.664.664 0 0 0-.108.366c0 .26.076.446.228.558.156.112.358.168.606.168ZM43.22 27.01c-.532 0-.942-.15-1.23-.45-.288-.305-.432-.723-.432-1.255v-3.438h-.624a.31.31 0 0 1-.21-.078c-.056-.052-.084-.13-.084-.234v-.588l.99-.162.312-1.68a.302.302 0 0 1 .108-.186.365.365 0 0 1 .222-.066h.768v1.938h1.62v1.056h-1.62v3.336c0 .192.048.342.144.45a.488.488 0 0 0 .384.162c.092 0 .168-.01.228-.03.064-.024.118-.048.162-.072.048-.024.09-.046.126-.066a.194.194 0 0 1 .108-.036.16.16 0 0 1 .108.036c.028.02.058.052.09.096l.444.72c-.216.18-.464.316-.744.408a2.77 2.77 0 0 1-.87.138ZM50.423 26.913h-.666c-.14 0-.25-.02-.33-.06-.08-.044-.14-.13-.18-.258l-.132-.438c-.156.14-.31.264-.462.372a2.804 2.804 0 0 1-.462.264c-.16.072-.33.126-.51.162-.18.036-.38.054-.6.054-.26 0-.5-.034-.72-.102a1.618 1.618 0 0 1-.57-.318 1.448 1.448 0 0 1-.366-.522 1.852 1.852 0 0 1-.132-.726c0-.232.06-.46.18-.684.124-.228.328-.432.612-.612.284-.184.662-.336 1.134-.456.472-.12 1.058-.188 1.758-.204v-.36c0-.412-.088-.716-.264-.912-.172-.2-.424-.3-.756-.3a1.837 1.837 0 0 0-1.02.276c-.116.068-.224.13-.324.186a.664.664 0 0 1-.33.084.429.429 0 0 1-.258-.078.614.614 0 0 1-.174-.192l-.27-.474c.708-.648 1.562-.972 2.562-.972.36 0 .68.06.96.18.284.116.524.28.72.492.196.208.344.458.444.75.104.292.156.612.156.96v3.888Zm-2.88-.924c.152 0 .292-.014.42-.042.128-.028.248-.07.36-.126.116-.056.226-.124.33-.204.108-.084.216-.182.324-.294v-1.038c-.432.02-.794.058-1.086.114-.288.052-.52.12-.696.204a.923.923 0 0 0-.378.294.664.664 0 0 0-.108.366c0 .26.076.446.228.558.156.112.358.168.606.168Z"/></svg></g><a id="title" href="https://ourworldindata.org/grapher/population?country=BRA~CHN~IND~NGA~ZAF~GBR~USA" style="font-family:&#x27;Playfair Display&#x27;, Georgia, &#x27;Times New Roman&#x27;, &#x27;Liberation Serif&#x27;, serif" target="_blank" rel="noopener"><text font-size="24.75" font-weight="600" x="16.0" y="40.0" fill="#5b5b5b"><tspan x="16" y="40.0075">Population, 10,000 BCE to 2023</tspan></text></a></g><g id="chart-area" style="pointer-events:none"><g id="horizontal-axis" class="HorizontalAxis"><g id="tick-marks"><line id="10,000-BCE" x1="85.7" y1="512.6" x2="85.7" y2="518.1" stroke="#999" stroke-width="1"></line><line id="2023" x1="700.8" y1="512.6" x2="700.8" y2="518.1" stroke="#999" stroke-width="1"></line><line id="6,000-BCE" x1="290.3" y1="512.6" x2="290.3" y2="518.1" stroke="#999" stroke-width="1"></line><line id="4,000-BCE" x1="392.6" y1="512.6" x2="392.6" y2="518.1" stroke="#999" stroke-width="1"></line><line id="2,000-BCE" x1="495" y1="512.6" x2="495" y2="518.1" stroke="#999" stroke-width="1"></line><line id="0" x1="597.3" y1="512.6" x2="597.3" y2="518.1" stroke="#999" stroke-width="1"></line></g><g id="tick-labels"><text x="85.665" y="531.6" fill="#5b5b5b" text-anchor="start" font-size="13.5">10,000 BCE</text><text x="700.78" y="531.6" fill="#5b5b5b" text-anchor="end" font-size="13.5">2023</text><text x="290.3" y="531.6" fill="#5b5b5b" text-anchor="middle" font-size="13.5">6,000 BCE</text><text x="392.6" y="531.6" fill="#5b5b5b" text-anchor="middle" font-size="13.5">4,000 BCE</text><text x="495" y="531.6" fill="#5b5b5b" text-anchor="middle" font-size="13.5">2,000 BCE</text><text x="597.3" y="531.6" fill="#5b5b5b" text-anchor="middle" font-size="13.5">0</text></g></g><g id="vertical-axis" class="VerticalAxis"><g id="tick-labels"><text x="80.67" y="513.1" dy=".32em" text-anchor="end" fill="#5b5b5b" font-size="13.5">0</text><text x="80.67" y="452" dy=".32em" text-anchor="end" fill="#5b5b5b" font-size="13.5">200 million</text><text x="80.67" y="391" dy=".32em" text-anchor="end" fill="#5b5b5b" font-size="13.5">400 million</text><text x="80.67" y="329.9" dy=".32em" text-anchor="end" fill="#5b5b5b" font-size="13.5">600 million</text><text x="80.67" y="268.8" dy=".32em" text-anchor="end" fill="#5b5b5b" font-size="13.5">800 million</text><text x="80.67" y="207.8" dy=".32em" text-anchor="end" fill="#5b5b5b" font-size="13.5">1 billion</text><text x="80.67" y="146.7" dy=".32em" text-anchor="end" fill="#5b5b5b" font-size="13.5">1.2 billion</text><text x="80.67" y="85.6" dy=".32em" text-anchor="end" fill="#5b5b5b" font-size="13.5">1.4 billion</text></g></g><g id="horizontal-grid-lines" class="AxisGridLines horizontalLines"><line id="0" x1="85.67" y1="513.1" x2="700.78" y2="513.1" stroke="#999" stroke-width="1"></line><line id="200-million" x1="85.67" y1="452" x2="700.78" y2="452" stroke="#ddd" stroke-width="1" stroke-dasharray="3,2"></line><line id="400-million" x1="85.67" y1="391" x2="700.78" y2="391" stroke="#ddd" stroke-width="1" stroke-dasharray="3,2"></line><line id="600-million" x1="85.67" y1="329.9" x2="700.78" y2="329.9" stroke="#ddd" stroke-width="1" stroke-dasharray="3,2"></line><line id="800-million" x1="85.67" y1="268.8" x2="700.78" y2="268.8" stroke="#ddd" stroke-width="1" stroke-dasharray="3,2"></line><line id="1-billion" x1="85.67" y1="207.8" x2="700.78" y2="207.8" stroke="#ddd" stroke-width="1" stroke-dasharray="3,2"></line><line id="1.2-billion" x1="85.67" y1="146.7" x2="700.78" y2="146.7" stroke="#ddd" stroke-width="1" stroke-dasharray="3,2"></line><line id="1.4-billion" x1="85.67" y1="85.6" x2="700.78" y2="85.6" stroke="#ddd" stroke-width="1" stroke-dasharray="3,2"></line></g><g id="line-labels" class="LineLabels"><g id="connectors"><path id="India" d="M704.78,74 H716.1133333333332 V75.425 H721.78" stroke="#999" stroke-width="0.5" fill="none"></path><path id="China" d="M704.78,78.7 H710.4466666666666 V94.27499999999999 H721.78" stroke="#999" stroke-width="0.5" fill="none"></path><path id="United-States" d="M704.78,408.2 H713.28 V408.2 H721.78" stroke="#999" stroke-width="0.5" fill="none"></path><path id="Nigeria" d="M704.78,443.5 H713.28 V436.625 H721.78" stroke="#999" stroke-width="0.5" fill="none"></path><path id="Brazil" d="M704.78,448.6 H713.28 V455.475 H721.78" stroke="#999" stroke-width="0.5" fill="none"></path><path id="United-Kingdom" d="M704.78,492.1 H713.28 V483.52500000000003 H721.78" stroke="#999" stroke-width="0.5" fill="none"></path><path id="South-Africa" d="M704.78,493.8 H713.28 V502.37500000000006 H721.78" stroke="#999" stroke-width="0.5" fill="none"></path></g><g id="text-annotations"></g><g id="text-labels"><text font-size="13.50" font-weight="400" x="725.8" y="80.4" fill="#2c8465" opacity="1" text-anchor="start"><tspan x="725.78" y="80.42">India</tspan></text><text font-size="13.50" font-weight="400" x="725.8" y="99.3" fill="#996d39" opacity="1" text-anchor="start"><tspan x="725.78" y="99.27">China</tspan></text><text font-size="13.50" font-weight="400" x="725.8" y="413.2" fill="#970046" opacity="1" text-anchor="start"><tspan x="725.78" y="413.195">United States</tspan></text><text font-size="13.50" font-weight="400" x="725.8" y="441.6" fill="#6d3e91" opacity="1" text-anchor="start"><tspan x="725.78" y="441.62">Nigeria</tspan></text><text font-size="13.50" font-weight="400" x="725.8" y="460.5" fill="#b13507" opacity="1" text-anchor="start"><tspan x="725.78" y="460.47">Brazil</tspan></text><text font-size="13.50" font-weight="400" x="725.8" y="488.5" fill="#008291" opacity="1" text-anchor="start"><tspan x="725.78" y="488.52000000000004">United Kingdom</tspan></text><text font-size="13.50" font-weight="400" x="725.8" y="507.4" fill="#00295b" opacity="1" text-anchor="start"><tspan x="725.78" y="507.37000000000006">South Africa</tspan></text></g></g><g id="lines"><path fill="none" stroke-linecap="butt" stroke-linejoin="round" stroke="#ffffff" id="outline__United-States" stroke-width="2.5" d="M85.7 513L136.8 513L188 513L239.1 513L290.3 513L341.5 513L392.6 513L443.8 513L495 512.9L546.1 512.9L597.3 512.9L602.4 512.9L607.5 512.9L612.6 512.9L617.7 512.9L622.9 512.8L628 512.8L633.1 512.8L638.2 512.8L643.3 512.8L648.4 512.7L653.6 512.7L658.7 512.7L663.8 512.6L668.9 512.6L674 512.5L679.1 512.9L684.3 512.8L684.8 512.7L685.3 512.5L685.8 512.4L686.3 512.3L686.8 512.1L687.3 512L687.8 511.9L688.3 511.7L688.9 511.6L689.4 511.3L689.4 511.2L689.5 511.2L689.5 511.2L689.6 511.1L689.6 511.1L689.7 511L689.7 511L689.8 511L689.8 510.9L689.9 510.9L689.9 510.8L690 510.7L690 510.7L690.1 510.6L690.1 510.5L690.2 510.4L690.2 510.3L690.3 510.2L690.3 510.1L690.4 510.1L690.4 510L690.5 509.9L690.5 509.8L690.6 509.7L690.7 509.6L690.7 509.5L690.8 509.4L690.8 509.3L690.9 509.2L690.9 509.1L691 508.9L691 508.8L691.1 508.7L691.1 508.6L691.2 508.5L691.2 508.3L691.3 508.2L691.3 508.1L691.4 507.9L691.4 507.8L691.5 507.6L691.5 507.4L691.6 507.3L691.6 507.1L691.7 506.9L691.7 506.7L691.8 506.5L691.8 506.3L691.9 506.1L691.9 505.9L692 505.7L692 505.5L692.1 505.2L692.1 505L692.2 504.7L692.2 504.5L692.3 504.2L692.3 504L692.4 503.7L692.4 503.5L692.5 503.2L692.5 503L692.6 502.7L692.6 502.5L692.7 502.2L692.7 502L692.8 501.7L692.8 501.5L692.9 501.2L693 500.9L693 500.6L693.1 500.4L693.1 500.1L693.2 499.8L693.2 499.5L693.3 499.2L693.3 498.9L693.4 498.5L693.4 498.2L693.5 497.9L693.5 497.5L693.6 497.2L693.6 496.8L693.7 496.5L693.7 496.1L693.8 495.7L693.8 495.3L693.9 494.9L693.9 494.5L694 494.1L694 493.8L694.1 493.4L694.1 493L694.2 492.6L694.2 492.3L694.3 491.9L694.3 491.5L694.4 491.1L694.4 490.7L694.5 490.3L694.5 489.8L694.6 489.4L694.6 488.9L694.7 488.5L694.7 488L694.8 487.5L694.8 487L694.9 486.5L694.9 486L695 485.6L695 485.1L695.1 484.7L695.2 484.3L695.2 483.9L695.3 483.5L695.3 483.1L695.4 482.7L695.4 482.3L695.5 481.8L695.5 481.4L695.6 480.9L695.6 480.4L695.7 480L695.7 479.5L695.8 479L695.8 478.5L695.9 478L695.9 477.5L696 477L696 476.6L696.1 476.2L696.1 475.9L696.2 475.6L696.2 475.4L696.3 475.1L696.3 474.8L696.4 474.6L696.4 474.3L696.5 474L696.5 473.6L696.6 473.1L696.6 472.6L696.7 472.1L696.7 471.5L696.8 470.9L696.8 470.3L696.9 469.7L696.9 469.1L697 468.5L697 466L697.1 465.3L697.1 464.6L697.2 463.9L697.2 463.1L697.3 462.4L697.4 461.6L697.4 460.7L697.5 459.9L697.5 459L697.6 458.1L697.6 457.1L697.7 456.1L697.7 455.1L697.8 454.2L697.8 453.4L697.9 452.6L697.9 451.8L698 451.1L698 450.4L698.1 449.7L698.1 448.8L698.2 448.1L698.2 447.4L698.3 446.8L698.3 446.2L698.4 445.6L698.4 444.9L698.5 444.3L698.5 443.6L698.6 442.9L698.6 442.2L698.7 441.5L698.7 440.7L698.8 440L698.8 439.3L698.9 438.6L698.9 437.9L699 437.3L699 436.6L699.1 435.7L699.1 434.8L699.2 433.8L699.2 432.9L699.3 432L699.3 431.2L699.4 430.4L699.4 429.6L699.5 428.8L699.6 428L699.6 427.2L699.7 426.3L699.7 425.4L699.8 424.6L699.8 423.7L699.9 422.8L699.9 421.9L700 420.9L700 420L700.1 419L700.1 418.1L700.2 417.2L700.2 416.3L700.3 415.4L700.3 414.4L700.4 413.5L700.4 412.6L700.5 411.7L700.5 410.8L700.6 410L700.6 409.5L700.7 409.2L700.7 408.8L700.8 408.2"></path><path fill="none" stroke-linecap="butt" stroke-linejoin="round" stroke="#970046" id="line__United-States" stroke-width="1.5" stroke-opacity="1" d="M85.7 513L136.8 513L188 513L239.1 513L290.3 513L341.5 513L392.6 513L443.8 513L495 512.9L546.1 512.9L597.3 512.9L602.4 512.9L607.5 512.9L612.6 512.9L617.7 512.9L622.9 512.8L628 512.8L633.1 512.8L638.2 512.8L643.3 512.8L648.4 512.7L653.6 512.7L658.7 512.7L663.8 512.6L668.9 512.6L674 512.5L679.1 512.9L684.3 512.8L684.8 512.7L685.3 512.5L685.8 512.4L686.3 512.3L686.8 512.1L687.3 512L687.8 511.9L688.3 511.7L688.9 511.6L689.4 511.3L689.4 511.2L689.5 511.2L689.5 511.2L689.6 511.1L689.6 511.1L689.7 511L689.7 511L689.8 511L689.8 510.9L689.9 510.9L689.9 510.8L690 510.7L690 510.7L690.1 510.6L690.1 510.5L690.2 510.4L690.2 510.3L690.3 510.2L690.3 510.1L690.4 510.1L690.4 510L690.5 509.9L690.5 509.8L690.6 509.7L690.7 509.6L690.7 509.5L690.8 509.4L690.8 509.3L690.9 509.2L690.9 509.1L691 508.9L691 508.8L691.1 508.7L691.1 508.6L691.2 508.5L691.2 508.3L691.3 508.2L691.3 508.1L691.4 507.9L691.4 507.8L691.5 507.6L691.5 507.4L691.6 507.3L691.6 507.1L691.7 506.9L691.7 506.7L691.8 506.5L691.8 506.3L691.9 506.1L691.9 505.9L692 505.7L692 505.5L692.1 505.2L692.1 505L692.2 504.7L692.2 504.5L692.3 504.2L692.3 504L692.4 503.7L692.4 503.5L692.5 503.2L692.5 503L692.6 502.7L692.6 502.5L692.7 502.2L692.7 502L692.8 501.7L692.8 501.5L692.9 501.2L693 500.9L693 500.6L693.1 500.4L693.1 500.1L693.2 499.8L693.2 499.5L693.3 499.2L693.3 498.9L693.4 498.5L693.4 498.2L693.5 497.9L693.5 497.5L693.6 497.2L693.6 496.8L693.7 496.5L693.7 496.1L693.8 495.7L693.8 495.3L693.9 494.9L693.9 494.5L694 494.1L694 493.8L694.1 493.4L694.1 493L694.2 492.6L694.2 492.3L694.3 491.9L694.3 491.5L694.4 491.1L694.4 490.7L694.5 490.3L694.5 489.8L694.6 489.4L694.6 488.9L694.7 488.5L694.7 488L694.8 487.5L694.8 487L694.9 486.5L694.9 486L695 485.6L695 485.1L695.1 484.7L695.2 484.3L695.2 483.9L695.3 483.5L695.3 483.1L695.4 482.7L695.4 482.3L695.5 481.8L695.5 481.4L695.6 480.9L695.6 480.4L695.7 480L695.7 479.5L695.8 479L695.8 478.5L695.9 478L695.9 477.5L696 477L696 476.6L696.1 476.2L696.1 475.9L696.2 475.6L696.2 475.4L696.3 475.1L696.3 474.8L696.4 474.6L696.4 474.3L696.5 474L696.5 473.6L696.6 473.1L696.6 472.6L696.7 472.1L696.7 471.5L696.8 470.9L696.8 470.3L696.9 469.7L696.9 469.1L697 468.5L697 466L697.1 465.3L697.1 464.6L697.2 463.9L697.2 463.1L697.3 462.4L697.4 461.6L697.4 460.7L697.5 459.9L697.5 459L697.6 458.1L697.6 457.1L697.7 456.1L697.7 455.1L697.8 454.2L697.8 453.4L697.9 452.6L697.9 451.8L698 451.1L698 450.4L698.1 449.7L698.1 448.8L698.2 448.1L698.2 447.4L698.3 446.8L698.3 446.2L698.4 445.6L698.4 444.9L698.5 444.3L698.5 443.6L698.6 442.9L698.6 442.2L698.7 441.5L698.7 440.7L698.8 440L698.8 439.3L698.9 438.6L698.9 437.9L699 437.3L699 436.6L699.1 435.7L699.1 434.8L699.2 433.8L699.2 432.9L699.3 432L699.3 431.2L699.4 430.4L699.4 429.6L699.5 428.8L699.6 428L699.6 427.2L699.7 426.3L699.7 425.4L699.8 424.6L699.8 423.7L699.9 422.8L699.9 421.9L700 420.9L700 420L700.1 419L700.1 418.1L700.2 417.2L700.2 416.3L700.3 415.4L700.3 414.4L700.4 413.5L700.4 412.6L700.5 411.7L700.5 410.8L700.6 410L700.6 409.5L700.7 409.2L700.7 408.8L700.8 408.2"></path><path fill="none" stroke-linecap="butt" stroke-linejoin="round" stroke="#ffffff" id="outline__United-Kingdom" stroke-width="2.5" d="M85.7 513.1L136.8 513.1L188 513.1L239.1 513.1L290.3 513.1L341.5 513.1L392.6 513.1L443.8 513.1L495 513.1L546.1 513L597.3 512.9L602.4 512.8L607.5 512.8L612.6 512.8L617.7 512.8L622.9 512.9L628 512.9L633.1 512.9L638.2 512.9L643.3 512.7L648.4 512.6L653.6 512.3L658.7 511.7L663.8 511.2L668.9 512.2L674 511.8L679.1 511.6L684.3 511L684.8 510.9L685.3 510.7L685.8 510.6L686.3 510.4L686.8 510.3L687.3 510.1L687.8 509.9L688.3 509.8L688.9 509.6L689.4 509.8L689.4 509.8L689.5 509.7L689.5 509.7L689.6 509.7L689.6 509.6L689.7 509.6L689.7 509.6L689.8 509.5L689.8 509.5L689.9 509.3L689.9 509.2L690 509L690 508.7L690.1 508.5L690.1 508.2L690.2 507.9L690.2 507.6L690.3 507.3L690.3 507L690.4 506.8L690.4 506.6L690.5 506.4L690.5 506.4L690.6 506.3L690.7 506.2L690.7 506.1L690.8 506L690.8 505.9L690.9 505.8L690.9 505.7L691 505.7L691 505.6L691.1 505.5L691.1 505.4L691.2 505.3L691.2 505.3L691.3 505.2L691.3 505.1L691.4 505L691.4 505L691.5 504.9L691.5 504.9L691.6 504.9L691.6 504.9L691.7 504.9L691.7 504.9L691.8 504.8L691.8 504.8L691.9 504.8L691.9 504.8L692 504.7L692 504.7L692.1 504.6L692.1 504.6L692.2 504.5L692.2 504.5L692.3 504.4L692.3 504.4L692.4 504.3L692.4 504.3L692.5 504.2L692.5 504.1L692.6 504.1L692.6 504L692.7 503.9L692.7 503.8L692.8 503.8L692.8 503.7L692.9 503.6L693 503.5L693 503.4L693.1 503.3L693.1 503.2L693.2 503.1L693.2 503L693.3 502.9L693.3 502.8L693.4 502.7L693.4 502.6L693.5 502.5L693.5 502.5L693.6 502.4L693.6 502.3L693.7 502.2L693.7 502.1L693.8 502L693.8 501.9L693.9 501.8L693.9 501.8L694 501.7L694 501.6L694.1 501.5L694.1 501.3L694.2 501.2L694.2 501.1L694.3 501L694.3 500.9L694.4 500.8L694.4 500.7L694.5 500.6L694.5 500.4L694.6 500.3L694.6 500.2L694.7 500.1L694.7 500L694.8 499.9L694.8 499.8L694.9 499.6L694.9 499.5L695 499.4L695 499.4L695.1 499.3L695.2 499.2L695.2 499.2L695.3 499.1L695.3 499.1L695.4 499L695.4 498.9L695.5 498.9L695.5 498.9L695.6 498.9L695.6 498.9L695.7 498.9L695.7 498.9L695.8 499L695.8 499L695.9 499L695.9 499.1L696 499.1L696 499.1L696.1 499L696.1 499L696.2 498.9L696.2 498.8L696.3 498.8L696.3 498.7L696.4 498.6L696.4 498.5L696.5 498.5L696.5 498.4L696.6 498.3L696.6 498.3L696.7 498.2L696.7 498.2L696.8 498.1L696.8 498.1L696.9 498L696.9 497.9L697 497.9L697 497.8L697.1 497.7L697.1 497.7L697.2 497.6L697.2 497.5L697.3 497.5L697.4 497.4L697.4 497.3L697.5 497.2L697.5 497.2L697.6 497.1L697.6 497L697.7 496.8L697.7 496.7L697.8 496.6L697.8 496.5L697.9 496.4L697.9 496.3L698 496.2L698 496.2L698.1 496.1L698.1 496L698.2 496L698.2 495.9L698.3 495.9L698.3 495.9L698.4 495.9L698.4 495.9L698.5 495.9L698.5 495.9L698.6 495.9L698.6 495.9L698.7 495.9L698.7 495.9L698.8 495.9L698.8 495.8L698.9 495.8L698.9 495.7L699 495.7L699 495.6L699.1 495.6L699.1 495.5L699.2 495.5L699.2 495.4L699.3 495.4L699.3 495.3L699.4 495.3L699.4 495.3L699.5 495.2L699.6 495.1L699.6 495.1L699.7 495L699.7 494.9L699.8 494.8L699.8 494.7L699.9 494.6L699.9 494.5L700 494.3L700 494.2L700.1 494L700.1 493.9L700.2 493.7L700.2 493.6L700.3 493.4L700.3 493.3L700.4 493.1L700.4 493L700.5 492.8L700.5 492.7L700.6 492.6L700.6 492.5L700.7 492.4L700.7 492.3L700.8 492.1"></path><path fill="none" stroke-linecap="butt" stroke-linejoin="round" stroke="#008291" id="line__United-Kingdom" stroke-width="1.5" stroke-opacity="1" d="M85.7 513.1L136.8 513.1L188 513.1L239.1 513.1L290.3 513.1L341.5 513.1L392.6 513.1L443.8 513.1L495 513.1L546.1 513L597.3 512.9L602.4 512.8L607.5 512.8L612.6 512.8L617.7 512.8L622.9 512.9L628 512.9L633.1 512.9L638.2 512.9L643.3 512.7L648.4 512.6L653.6 512.3L658.7 511.7L663.8 511.2L668.9 512.2L674 511.8L679.1 511.6L684.3 511L684.8 510.9L685.3 510.7L685.8 510.6L686.3 510.4L686.8 510.3L687.3 510.1L687.8 509.9L688.3 509.8L688.9 509.6L689.4 509.8L689.4 509.8L689.5 509.7L689.5 509.7L689.6 509.7L689.6 509.6L689.7 509.6L689.7 509.6L689.8 509.5L689.8 509.5L689.9 509.3L689.9 509.2L690 509L690 508.7L690.1 508.5L690.1 508.2L690.2 507.9L690.2 507.6L690.3 507.3L690.3 507L690.4 506.8L690.4 506.6L690.5 506.4L690.5 506.4L690.6 506.3L690.7 506.2L690.7 506.1L690.8 506L690.8 505.9L690.9 505.8L690.9 505.7L691 505.7L691 505.6L691.1 505.5L691.1 505.4L691.2 505.3L691.2 505.3L691.3 505.2L691.3 505.1L691.4 505L691.4 505L691.5 504.9L691.5 504.9L691.6 504.9L691.6 504.9L691.7 504.9L691.7 504.9L691.8 504.8L691.8 504.8L691.9 504.8L691.9 504.8L692 504.7L692 504.7L692.1 504.6L692.1 504.6L692.2 504.5L692.2 504.5L692.3 504.4L692.3 504.4L692.4 504.3L692.4 504.3L692.5 504.2L692.5 504.1L692.6 504.1L692.6 504L692.7 503.9L692.7 503.8L692.8 503.8L692.8 503.7L692.9 503.6L693 503.5L693 503.4L693.1 503.3L693.1 503.2L693.2 503.1L693.2 503L693.3 502.9L693.3 502.8L693.4 502.7L693.4 502.6L693.5 502.5L693.5 502.5L693.6 502.4L693.6 502.3L693.7 502.2L693.7 502.1L693.8 502L693.8 501.9L693.9 501.8L693.9 501.8L694 501.7L694 501.6L694.1 501.5L694.1 501.3L694.2 501.2L694.2 501.1L694.3 501L694.3 500.9L694.4 500.8L694.4 500.7L694.5 500.6L694.5 500.4L694.6 500.3L694.6 500.2L694.7 500.1L694.7 500L694.8 499.9L694.8 499.8L694.9 499.6L694.9 499.5L695 499.4L695 499.4L695.1 499.3L695.2 499.2L695.2 499.2L695.3 499.1L695.3 499.1L695.4 499L695.4 498.9L695.5 498.9L695.5 498.9L695.6 498.9L695.6 498.9L695.7 498.9L695.7 498.9L695.8 499L695.8 499L695.9 499L695.9 499.1L696 499.1L696 499.1L696.1 499L696.1 499L696.2 498.9L696.2 498.8L696.3 498.8L696.3 498.7L696.4 498.6L696.4 498.5L696.5 498.5L696.5 498.4L696.6 498.3L696.6 498.3L696.7 498.2L696.7 498.2L696.8 498.1L696.8 498.1L696.9 498L696.9 497.9L697 497.9L697 497.8L697.1 497.7L697.1 497.7L697.2 497.6L697.2 497.5L697.3 497.5L697.4 497.4L697.4 497.3L697.5 497.2L697.5 497.2L697.6 497.1L697.6 497L697.7 496.8L697.7 496.7L697.8 496.6L697.8 496.5L697.9 496.4L697.9 496.3L698 496.2L698 496.2L698.1 496.1L698.1 496L698.2 496L698.2 495.9L698.3 495.9L698.3 495.9L698.4 495.9L698.4 495.9L698.5 495.9L698.5 495.9L698.6 495.9L698.6 495.9L698.7 495.9L698.7 495.9L698.8 495.9L698.8 495.8L698.9 495.8L698.9 495.7L699 495.7L699 495.6L699.1 495.6L699.1 495.5L699.2 495.5L699.2 495.4L699.3 495.4L699.3 495.3L699.4 495.3L699.4 495.3L699.5 495.2L699.6 495.1L699.6 495.1L699.7 495L699.7 494.9L699.8 494.8L699.8 494.7L699.9 494.6L699.9 494.5L700 494.3L700 494.2L700.1 494L700.1 493.9L700.2 493.7L700.2 493.6L700.3 493.4L700.3 493.3L700.4 493.1L700.4 493L700.5 492.8L700.5 492.7L700.6 492.6L700.6 492.5L700.7 492.4L700.7 492.3L700.8 492.1"></path><path fill="none" stroke-linecap="butt" stroke-linejoin="round" stroke="#ffffff" id="outline__South-Africa" stroke-width="2.5" d="M85.7 513.1L136.8 513.1L188 513.1L239.1 513.1L290.3 513.1L341.5 513.1L392.6 513.1L443.8 513.1L495 513.1L546.1 513.1L597.3 513.1L602.4 513.1L607.5 513.1L612.6 513.1L617.7 513.1L622.9 513.1L628 513L633.1 513L638.2 513L643.3 513L648.4 513L653.6 513L658.7 513L663.8 513L668.9 513L674 512.9L679.1 512.9L684.3 512.8L684.8 512.8L685.3 512.8L685.8 512.9L686.3 512.9L686.8 512.9L687.3 512.9L687.8 512.9L688.3 512.9L688.9 512.9L689.4 512.7L689.4 512.7L689.5 512.7L689.5 512.7L689.6 512.7L689.6 512.6L689.7 512.6L689.7 512.6L689.8 512.6L689.8 512.6L689.9 512.6L689.9 512.6L690 512.6L690 512.6L690.1 512.6L690.1 512.6L690.2 512.6L690.2 512.6L690.3 512.6L690.3 512.6L690.4 512.6L690.4 512.6L690.5 512.6L690.5 512.6L690.6 512.6L690.7 512.6L690.7 512.6L690.8 512.5L690.8 512.5L690.9 512.5L690.9 512.5L691 512.5L691 512.5L691.1 512.5L691.1 512.5L691.2 512.4L691.2 512.4L691.3 512.4L691.3 512.4L691.4 512.4L691.4 512.4L691.5 512.3L691.5 512.3L691.6 512.3L691.6 512.3L691.7 512.3L691.7 512.3L691.8 512.2L691.8 512.2L691.9 512.2L691.9 512.2L692 512.2L692 512.2L692.1 512.2L692.1 512.1L692.2 512.1L692.2 512.1L692.3 512.1L692.3 512.1L692.4 512.1L692.4 512.1L692.5 512.1L692.5 512.1L692.6 512L692.6 512L692.7 512L692.7 512L692.8 512L692.8 512L692.9 512L693 512L693 511.9L693.1 511.9L693.1 511.9L693.2 511.9L693.2 511.9L693.3 511.9L693.3 511.9L693.4 511.9L693.4 511.8L693.5 511.8L693.5 511.8L693.6 511.8L693.6 511.8L693.7 511.8L693.7 511.8L693.8 511.7L693.8 511.7L693.9 511.7L693.9 511.7L694 511.7L694 511.7L694.1 511.7L694.1 511.6L694.2 511.6L694.2 511.6L694.3 511.6L694.3 511.6L694.4 511.6L694.4 511.5L694.5 511.5L694.5 511.5L694.6 511.5L694.6 511.4L694.7 511.4L694.7 511.4L694.8 511.4L694.8 511.3L694.9 511.3L694.9 511.3L695 511.2L695 511.2L695.1 511.2L695.2 511.1L695.2 511.1L695.3 511.1L695.3 511.1L695.4 511L695.4 511L695.5 510.9L695.5 510.9L695.6 510.9L695.6 510.8L695.7 510.8L695.7 510.7L695.8 510.7L695.8 510.6L695.9 510.6L695.9 510.5L696 510.5L696 510.4L696.1 510.4L696.1 510.3L696.2 510.2L696.2 510.2L696.3 510.1L696.3 510.1L696.4 510L696.4 509.9L696.5 509.9L696.5 509.8L696.6 509.8L696.6 509.7L696.7 509.6L696.7 509.6L696.8 509.5L696.8 509.4L696.9 509.4L696.9 509.3L697 509.2L697 509.1L697.1 509L697.1 508.9L697.2 508.9L697.2 508.8L697.3 508.7L697.4 508.6L697.4 508.4L697.5 508.3L697.5 508.2L697.6 508.1L697.6 507.9L697.7 507.8L697.7 507.6L697.8 507.4L697.8 507.3L697.9 507.1L697.9 506.9L698 506.7L698 506.5L698.1 506.3L698.1 506.1L698.2 505.9L698.2 505.7L698.3 505.5L698.3 505.3L698.4 505L698.4 504.8L698.5 504.6L698.5 504.4L698.6 504.1L698.6 503.8L698.7 503.4L698.7 503.1L698.8 502.8L698.8 502.4L698.9 502.1L698.9 501.7L699 501.4L699 501L699.1 500.7L699.1 500.4L699.2 500.1L699.2 499.9L699.3 499.7L699.3 499.5L699.4 499.3L699.4 499.2L699.5 499L699.6 498.8L699.6 498.7L699.7 498.6L699.7 498.4L699.8 498.3L699.8 498.1L699.9 498L699.9 497.8L700 497.7L700 497.5L700.1 497.3L700.1 497.1L700.2 496.9L700.2 496.7L700.3 496.4L700.3 496.1L700.4 495.8L700.4 495.6L700.5 495.5L700.5 495.2L700.6 494.9L700.6 494.6L700.7 494.3L700.7 494.1L700.8 493.8"></path><path fill="none" stroke-linecap="butt" stroke-linejoin="round" stroke="#00295b" id="line__South-Africa" stroke-width="1.5" stroke-opacity="1" d="M85.7 513.1L136.8 513.1L188 513.1L239.1 513.1L290.3 513.1L341.5 513.1L392.6 513.1L443.8 513.1L495 513.1L546.1 513.1L597.3 513.1L602.4 513.1L607.5 513.1L612.6 513.1L617.7 513.1L622.9 513.1L628 513L633.1 513L638.2 513L643.3 513L648.4 513L653.6 513L658.7 513L663.8 513L668.9 513L674 512.9L679.1 512.9L684.3 512.8L684.8 512.8L685.3 512.8L685.8 512.9L686.3 512.9L686.8 512.9L687.3 512.9L687.8 512.9L688.3 512.9L688.9 512.9L689.4 512.7L689.4 512.7L689.5 512.7L689.5 512.7L689.6 512.7L689.6 512.6L689.7 512.6L689.7 512.6L689.8 512.6L689.8 512.6L689.9 512.6L689.9 512.6L690 512.6L690 512.6L690.1 512.6L690.1 512.6L690.2 512.6L690.2 512.6L690.3 512.6L690.3 512.6L690.4 512.6L690.4 512.6L690.5 512.6L690.5 512.6L690.6 512.6L690.7 512.6L690.7 512.6L690.8 512.5L690.8 512.5L690.9 512.5L690.9 512.5L691 512.5L691 512.5L691.1 512.5L691.1 512.5L691.2 512.4L691.2 512.4L691.3 512.4L691.3 512.4L691.4 512.4L691.4 512.4L691.5 512.3L691.5 512.3L691.6 512.3L691.6 512.3L691.7 512.3L691.7 512.3L691.8 512.2L691.8 512.2L691.9 512.2L691.9 512.2L692 512.2L692 512.2L692.1 512.2L692.1 512.1L692.2 512.1L692.2 512.1L692.3 512.1L692.3 512.1L692.4 512.1L692.4 512.1L692.5 512.1L692.5 512.1L692.6 512L692.6 512L692.7 512L692.7 512L692.8 512L692.8 512L692.9 512L693 512L693 511.9L693.1 511.9L693.1 511.9L693.2 511.9L693.2 511.9L693.3 511.9L693.3 511.9L693.4 511.9L693.4 511.8L693.5 511.8L693.5 511.8L693.6 511.8L693.6 511.8L693.7 511.8L693.7 511.8L693.8 511.7L693.8 511.7L693.9 511.7L693.9 511.7L694 511.7L694 511.7L694.1 511.7L694.1 511.6L694.2 511.6L694.2 511.6L694.3 511.6L694.3 511.6L694.4 511.6L694.4 511.5L694.5 511.5L694.5 511.5L694.6 511.5L694.6 511.4L694.7 511.4L694.7 511.4L694.8 511.4L694.8 511.3L694.9 511.3L694.9 511.3L695 511.2L695 511.2L695.1 511.2L695.2 511.1L695.2 511.1L695.3 511.1L695.3 511.1L695.4 511L695.4 511L695.5 510.9L695.5 510.9L695.6 510.9L695.6 510.8L695.7 510.8L695.7 510.7L695.8 510.7L695.8 510.6L695.9 510.6L695.9 510.5L696 510.5L696 510.4L696.1 510.4L696.1 510.3L696.2 510.2L696.2 510.2L696.3 510.1L696.3 510.1L696.4 510L696.4 509.9L696.5 509.9L696.5 509.8L696.6 509.8L696.6 509.7L696.7 509.6L696.7 509.6L696.8 509.5L696.8 509.4L696.9 509.4L696.9 509.3L697 509.2L697 509.1L697.1 509L697.1 508.9L697.2 508.9L697.2 508.8L697.3 508.7L697.4 508.6L697.4 508.4L697.5 508.3L697.5 508.2L697.6 508.1L697.6 507.9L697.7 507.8L697.7 507.6L697.8 507.4L697.8 507.3L697.9 507.1L697.9 506.9L698 506.7L698 506.5L698.1 506.3L698.1 506.1L698.2 505.9L698.2 505.7L698.3 505.5L698.3 505.3L698.4 505L698.4 504.8L698.5 504.6L698.5 504.4L698.6 504.1L698.6 503.8L698.7 503.4L698.7 503.1L698.8 502.8L698.8 502.4L698.9 502.1L698.9 501.7L699 501.4L699 501L699.1 500.7L699.1 500.4L699.2 500.1L699.2 499.9L699.3 499.7L699.3 499.5L699.4 499.3L699.4 499.2L699.5 499L699.6 498.8L699.6 498.7L699.7 498.6L699.7 498.4L699.8 498.3L699.8 498.1L699.9 498L699.9 497.8L700 497.7L700 497.5L700.1 497.3L700.1 497.1L700.2 496.9L700.2 496.7L700.3 496.4L700.3 496.1L700.4 495.8L700.4 495.6L700.5 495.5L700.5 495.2L700.6 494.9L700.6 494.6L700.7 494.3L700.7 494.1L700.8 493.8"></path><path fill="none" stroke-linecap="butt" stroke-linejoin="round" stroke="#ffffff" id="outline__Nigeria" stroke-width="2.5" d="M85.7 513.1L136.8 513.1L188 513.1L239.1 513.1L290.3 513.1L341.5 513.1L392.6 513.1L443.8 513L495 513L546.1 513L597.3 512.9L602.4 512.9L607.5 512.8L612.6 512.7L617.7 512.6L622.9 512.5L628 512.2L633.1 512L638.2 511.6L643.3 511.3L648.4 511L653.6 510.8L658.7 510.7L663.8 510.4L668.9 510L674 509.7L679.1 508.8L684.3 507.6L684.8 507.4L685.3 507.3L685.8 507.3L686.3 507.2L686.8 507.2L687.3 507.1L687.8 507.1L688.3 507L688.9 506.9L689.4 509.4L689.4 509.4L689.5 509.4L689.5 509.4L689.6 509.4L689.6 509.4L689.7 509.4L689.7 509.4L689.8 509.4L689.8 509.4L689.9 509.4L689.9 509.4L690 509.4L690 509.4L690.1 509.4L690.1 509.4L690.2 509.4L690.2 509.4L690.3 509.4L690.3 509.4L690.4 509.4L690.4 509.4L690.5 509.4L690.5 509.4L690.6 509.3L690.7 509.3L690.7 509.3L690.8 509.3L690.8 509.3L690.9 509.3L690.9 509.3L691 509.2L691 509.2L691.1 509.2L691.1 509.2L691.2 509.2L691.2 509.2L691.3 509.2L691.3 509.1L691.4 509.1L691.4 509.1L691.5 509.1L691.5 509.1L691.6 509.1L691.6 509.1L691.7 509L691.7 509L691.8 509L691.8 509L691.9 509L691.9 509L692 508.9L692 508.9L692.1 508.9L692.1 508.9L692.2 508.9L692.2 508.8L692.3 508.8L692.3 508.8L692.4 508.8L692.4 508.7L692.5 508.7L692.5 508.7L692.6 508.7L692.6 508.6L692.7 508.6L692.7 508.6L692.8 508.6L692.8 508.5L692.9 508.5L693 508.5L693 508.5L693.1 508.4L693.1 508.4L693.2 508.4L693.2 508.3L693.3 508.3L693.3 508.3L693.4 508.2L693.4 508.2L693.5 508.2L693.5 508.1L693.6 508.1L693.6 508.1L693.7 508L693.7 508L693.8 507.9L693.8 507.9L693.9 507.9L693.9 507.8L694 507.8L694 507.8L694.1 507.7L694.1 507.7L694.2 507.6L694.2 507.6L694.3 507.6L694.3 507.5L694.4 507.5L694.4 507.4L694.5 507.4L694.5 507.3L694.6 507.3L694.6 507.2L694.7 507.2L694.7 507.1L694.8 507L694.8 507L694.9 506.9L694.9 506.9L695 506.8L695 506.7L695.1 506.7L695.2 506.6L695.2 506.5L695.3 506.5L695.3 506.4L695.4 506.3L695.4 506.3L695.5 506.2L695.5 506.1L695.6 506L695.6 505.9L695.7 505.8L695.7 505.7L695.8 505.6L695.8 505.4L695.9 505.3L695.9 505.2L696 505.1L696 504.9L696.1 504.8L696.1 504.7L696.2 504.6L696.2 504.4L696.3 504.3L696.3 504.2L696.4 504L696.4 503.9L696.5 503.8L696.5 503.6L696.6 503.4L696.6 503.3L696.7 503.1L696.7 502.9L696.8 502.7L696.8 502.6L696.9 502.4L696.9 502.2L697 502L697 501.7L697.1 501.5L697.1 501.3L697.2 501.1L697.2 500.8L697.3 500.6L697.4 500.4L697.4 500.1L697.5 499.9L697.5 499.6L697.6 499.3L697.6 499.1L697.7 498.8L697.7 498.5L697.8 498.1L697.8 497.8L697.9 497.5L697.9 497.1L698 496.8L698 496.4L698.1 496L698.1 495.6L698.2 495.2L698.2 494.8L698.3 494.3L698.3 493.7L698.4 493.2L698.4 492.6L698.5 491.9L698.5 491.3L698.6 490.6L698.6 489.9L698.7 489.2L698.7 488.5L698.8 487.9L698.8 487.2L698.9 486.5L698.9 485.7L699 485L699 484.2L699.1 483.4L699.1 482.7L699.2 481.8L699.2 481L699.3 480.1L699.3 479.3L699.4 478.4L699.4 477.5L699.5 476.5L699.6 475.5L699.6 474.5L699.7 473.4L699.7 472.3L699.8 471.2L699.8 470L699.9 468.8L699.9 467.6L700 466.3L700 465L700.1 463.6L700.1 462.2L700.2 460.8L700.2 459.3L700.3 457.8L700.3 456.3L700.4 454.9L700.4 453.4L700.5 452L700.5 450.5L700.6 449.1L700.6 447.8L700.7 446.4L700.7 445L700.8 443.5"></path><path fill="none" stroke-linecap="butt" stroke-linejoin="round" stroke="#6d3e91" id="line__Nigeria" stroke-width="1.5" stroke-opacity="1" d="M85.7 513.1L136.8 513.1L188 513.1L239.1 513.1L290.3 513.1L341.5 513.1L392.6 513.1L443.8 513L495 513L546.1 513L597.3 512.9L602.4 512.9L607.5 512.8L612.6 512.7L617.7 512.6L622.9 512.5L628 512.2L633.1 512L638.2 511.6L643.3 511.3L648.4 511L653.6 510.8L658.7 510.7L663.8 510.4L668.9 510L674 509.7L679.1 508.8L684.3 507.6L684.8 507.4L685.3 507.3L685.8 507.3L686.3 507.2L686.8 507.2L687.3 507.1L687.8 507.1L688.3 507L688.9 506.9L689.4 509.4L689.4 509.4L689.5 509.4L689.5 509.4L689.6 509.4L689.6 509.4L689.7 509.4L689.7 509.4L689.8 509.4L689.8 509.4L689.9 509.4L689.9 509.4L690 509.4L690 509.4L690.1 509.4L690.1 509.4L690.2 509.4L690.2 509.4L690.3 509.4L690.3 509.4L690.4 509.4L690.4 509.4L690.5 509.4L690.5 509.4L690.6 509.3L690.7 509.3L690.7 509.3L690.8 509.3L690.8 509.3L690.9 509.3L690.9 509.3L691 509.2L691 509.2L691.1 509.2L691.1 509.2L691.2 509.2L691.2 509.2L691.3 509.2L691.3 509.1L691.4 509.1L691.4 509.1L691.5 509.1L691.5 509.1L691.6 509.1L691.6 509.1L691.7 509L691.7 509L691.8 509L691.8 509L691.9 509L691.9 509L692 508.9L692 508.9L692.1 508.9L692.1 508.9L692.2 508.9L692.2 508.8L692.3 508.8L692.3 508.8L692.4 508.8L692.4 508.7L692.5 508.7L692.5 508.7L692.6 508.7L692.6 508.6L692.7 508.6L692.7 508.6L692.8 508.6L692.8 508.5L692.9 508.5L693 508.5L693 508.5L693.1 508.4L693.1 508.4L693.2 508.4L693.2 508.3L693.3 508.3L693.3 508.3L693.4 508.2L693.4 508.2L693.5 508.2L693.5 508.1L693.6 508.1L693.6 508.1L693.7 508L693.7 508L693.8 507.9L693.8 507.9L693.9 507.9L693.9 507.8L694 507.8L694 507.8L694.1 507.7L694.1 507.7L694.2 507.6L694.2 507.6L694.3 507.6L694.3 507.5L694.4 507.5L694.4 507.4L694.5 507.4L694.5 507.3L694.6 507.3L694.6 507.2L694.7 507.2L694.7 507.1L694.8 507L694.8 507L694.9 506.9L694.9 506.9L695 506.8L695 506.7L695.1 506.7L695.2 506.6L695.2 506.5L695.3 506.5L695.3 506.4L695.4 506.3L695.4 506.3L695.5 506.2L695.5 506.1L695.6 506L695.6 505.9L695.7 505.8L695.7 505.7L695.8 505.6L695.8 505.4L695.9 505.3L695.9 505.2L696 505.1L696 504.9L696.1 504.8L696.1 504.7L696.2 504.6L696.2 504.4L696.3 504.3L696.3 504.2L696.4 504L696.4 503.9L696.5 503.8L696.5 503.6L696.6 503.4L696.6 503.3L696.7 503.1L696.7 502.9L696.8 502.7L696.8 502.6L696.9 502.4L696.9 502.2L697 502L697 501.7L697.1 501.5L697.1 501.3L697.2 501.1L697.2 500.8L697.3 500.6L697.4 500.4L697.4 500.1L697.5 499.9L697.5 499.6L697.6 499.3L697.6 499.1L697.7 498.8L697.7 498.5L697.8 498.1L697.8 497.8L697.9 497.5L697.9 497.1L698 496.8L698 496.4L698.1 496L698.1 495.6L698.2 495.2L698.2 494.8L698.3 494.3L698.3 493.7L698.4 493.2L698.4 492.6L698.5 491.9L698.5 491.3L698.6 490.6L698.6 489.9L698.7 489.2L698.7 488.5L698.8 487.9L698.8 487.2L698.9 486.5L698.9 485.7L699 485L699 484.2L699.1 483.4L699.1 482.7L699.2 481.8L699.2 481L699.3 480.1L699.3 479.3L699.4 478.4L699.4 477.5L699.5 476.5L699.6 475.5L699.6 474.5L699.7 473.4L699.7 472.3L699.8 471.2L699.8 470L699.9 468.8L699.9 467.6L700 466.3L700 465L700.1 463.6L700.1 462.2L700.2 460.8L700.2 459.3L700.3 457.8L700.3 456.3L700.4 454.9L700.4 453.4L700.5 452L700.5 450.5L700.6 449.1L700.6 447.8L700.7 446.4L700.7 445L700.8 443.5"></path><path fill="none" stroke-linecap="butt" stroke-linejoin="round" stroke="#ffffff" id="outline__India" stroke-width="2.5" d="M85.7 513.1L136.8 513L188 513L239.1 512.9L290.3 512.7L341.5 512.3L392.6 511.6L443.8 510.1L495 507.2L546.1 501.5L597.3 490.2L602.4 489.1L607.5 487.9L612.6 486.8L617.7 485.6L622.9 484.5L628 483.3L633.1 482.2L638.2 481L643.3 479.9L648.4 478.8L653.6 477.6L658.7 476.5L663.8 475.3L668.9 474.2L674 473L679.1 471.9L684.3 462.7L684.8 461.6L685.3 460.5L685.8 459.4L686.3 458.2L686.8 457.1L687.3 456L687.8 454.9L688.3 453.8L688.9 452.6L689.4 451.8L689.4 451.7L689.5 451.6L689.5 451.4L689.6 451.3L689.6 451.2L689.7 451.1L689.7 451L689.8 450.8L689.8 450.7L689.9 450.6L689.9 450.5L690 450.3L690 450.2L690.1 450L690.1 449.9L690.2 449.7L690.2 449.6L690.3 449.4L690.3 449.2L690.4 449L690.4 448.9L690.5 448.8L690.5 448.5L690.6 448.2L690.7 448L690.7 447.7L690.8 447.5L690.8 447.2L690.9 446.9L690.9 446.7L691 446.4L691 446.1L691.1 445.9L691.1 445.6L691.2 445.3L691.2 445L691.3 444.8L691.3 444.5L691.4 444.2L691.4 443.9L691.5 443.7L691.5 443.4L691.6 443.1L691.6 442.8L691.7 442.5L691.7 442.2L691.8 442L691.8 441.7L691.9 441.4L691.9 441.1L692 440.9L692 440.6L692.1 440.4L692.1 440.2L692.2 439.9L692.2 439.7L692.3 439.5L692.3 439.2L692.4 439L692.4 438.8L692.5 438.5L692.5 438.3L692.6 438L692.6 437.8L692.7 437.6L692.7 437.3L692.8 437.1L692.8 436.8L692.9 436.6L693 436.4L693 436.3L693.1 436.1L693.1 436L693.2 435.9L693.2 435.8L693.3 435.7L693.3 435.6L693.4 435.5L693.4 435.3L693.5 435L693.5 434.6L693.6 434L693.6 433.4L693.7 432.8L693.7 432.1L693.8 431.5L693.8 430.8L693.9 430.1L693.9 429.6L694 429.1L694 428.8L694.1 428.6L694.1 428.4L694.2 428.3L694.2 428.2L694.3 428.1L694.3 428L694.4 427.8L694.4 427.7L694.5 427.4L694.5 427L694.6 426.6L694.6 426.1L694.7 425.6L694.7 425.1L694.8 424.6L694.8 424.1L694.9 423.6L694.9 423.2L695 422.9L695 422.6L695.1 422.5L695.2 422.4L695.2 422.3L695.3 422.2L695.3 422.2L695.4 422.1L695.4 422L695.5 421.7L695.5 421.3L695.6 420.7L695.6 420L695.7 419.1L695.7 418.2L695.8 417.3L695.8 416.3L695.9 415.4L695.9 414.5L696 413.4L696 412.3L696.1 411L696.1 409.7L696.2 408.2L696.2 406.8L696.3 405.3L696.3 403.8L696.4 402.2L696.4 400.7L696.5 399.6L696.5 399L696.6 398.8L696.6 399.2L696.7 400.1L696.7 400.9L696.8 401.7L696.8 402.6L696.9 403.4L696.9 404.2L697 404.4L697 407.4L697.1 405L697.1 402.6L697.2 400.1L697.2 397.5L697.3 394.7L697.4 391.9L697.4 389.1L697.5 386.1L697.5 383.1L697.6 380L697.6 376.7L697.7 373.5L697.7 370.2L697.8 366.8L697.8 363.4L697.9 360.2L697.9 356.9L698 353.5L698 350.1L698.1 346.4L698.1 342.7L698.2 338.9L698.2 334.9L698.3 330.8L698.3 326.4L698.4 322L698.4 317.4L698.5 312.9L698.5 308.2L698.6 303.2L698.6 298.2L698.7 293.2L698.7 288L698.8 282.6L698.8 277.2L698.9 271.7L698.9 266.1L699 260.5L699 254.8L699.1 249L699.1 243.2L699.2 237.4L699.2 231.5L699.3 225.7L699.3 219.9L699.4 214L699.4 208L699.5 202.1L699.6 196.1L699.6 190.1L699.7 184L699.7 178L699.8 172.1L699.8 166.2L699.9 160.5L699.9 155L700 149.5L700 144.3L700.1 138.9L700.1 133.4L700.2 128L700.2 122.7L700.3 117.4L700.3 112.4L700.4 107.6L700.4 102.7L700.5 97.9L700.5 93.4L700.6 89L700.6 84.8L700.7 81.3L700.7 77.9L700.8 74"></path><path fill="none" stroke-linecap="butt" stroke-linejoin="round" stroke="#2c8465" id="line__India" stroke-width="1.5" stroke-opacity="1" d="M85.7 513.1L136.8 513L188 513L239.1 512.9L290.3 512.7L341.5 512.3L392.6 511.6L443.8 510.1L495 507.2L546.1 501.5L597.3 490.2L602.4 489.1L607.5 487.9L612.6 486.8L617.7 485.6L622.9 484.5L628 483.3L633.1 482.2L638.2 481L643.3 479.9L648.4 478.8L653.6 477.6L658.7 476.5L663.8 475.3L668.9 474.2L674 473L679.1 471.9L684.3 462.7L684.8 461.6L685.3 460.5L685.8 459.4L686.3 458.2L686.8 457.1L687.3 456L687.8 454.9L688.3 453.8L688.9 452.6L689.4 451.8L689.4 451.7L689.5 451.6L689.5 451.4L689.6 451.3L689.6 451.2L689.7 451.1L689.7 451L689.8 450.8L689.8 450.7L689.9 450.6L689.9 450.5L690 450.3L690 450.2L690.1 450L690.1 449.9L690.2 449.7L690.2 449.6L690.3 449.4L690.3 449.2L690.4 449L690.4 448.9L690.5 448.8L690.5 448.5L690.6 448.2L690.7 448L690.7 447.7L690.8 447.5L690.8 447.2L690.9 446.9L690.9 446.7L691 446.4L691 446.1L691.1 445.9L691.1 445.6L691.2 445.3L691.2 445L691.3 444.8L691.3 444.5L691.4 444.2L691.4 443.9L691.5 443.7L691.5 443.4L691.6 443.1L691.6 442.8L691.7 442.5L691.7 442.2L691.8 442L691.8 441.7L691.9 441.4L691.9 441.1L692 440.9L692 440.6L692.1 440.4L692.1 440.2L692.2 439.9L692.2 439.7L692.3 439.5L692.3 439.2L692.4 439L692.4 438.8L692.5 438.5L692.5 438.3L692.6 438L692.6 437.8L692.7 437.6L692.7 437.3L692.8 437.1L692.8 436.8L692.9 436.6L693 436.4L693 436.3L693.1 436.1L693.1 436L693.2 435.9L693.2 435.8L693.3 435.7L693.3 435.6L693.4 435.5L693.4 435.3L693.5 435L693.5 434.6L693.6 434L693.6 433.4L693.7 432.8L693.7 432.1L693.8 431.5L693.8 430.8L693.9 430.1L693.9 429.6L694 429.1L694 428.8L694.1 428.6L694.1 428.4L694.2 428.3L694.2 428.2L694.3 428.1L694.3 428L694.4 427.8L694.4 427.7L694.5 427.4L694.5 427L694.6 426.6L694.6 426.1L694.7 425.6L694.7 425.1L694.8 424.6L694.8 424.1L694.9 423.6L694.9 423.2L695 422.9L695 422.6L695.1 422.5L695.2 422.4L695.2 422.3L695.3 422.2L695.3 422.2L695.4 422.1L695.4 422L695.5 421.7L695.5 421.3L695.6 420.7L695.6 420L695.7 419.1L695.7 418.2L695.8 417.3L695.8 416.3L695.9 415.4L695.9 414.5L696 413.4L696 412.3L696.1 411L696.1 409.7L696.2 408.2L696.2 406.8L696.3 405.3L696.3 403.8L696.4 402.2L696.4 400.7L696.5 399.6L696.5 399L696.6 398.8L696.6 399.2L696.7 400.1L696.7 400.9L696.8 401.7L696.8 402.6L696.9 403.4L696.9 404.2L697 404.4L697 407.4L697.1 405L697.1 402.6L697.2 400.1L697.2 397.5L697.3 394.7L697.4 391.9L697.4 389.1L697.5 386.1L697.5 383.1L697.6 380L697.6 376.7L697.7 373.5L697.7 370.2L697.8 366.8L697.8 363.4L697.9 360.2L697.9 356.9L698 353.5L698 350.1L698.1 346.4L698.1 342.7L698.2 338.9L698.2 334.9L698.3 330.8L698.3 326.4L698.4 322L698.4 317.4L698.5 312.9L698.5 308.2L698.6 303.2L698.6 298.2L698.7 293.2L698.7 288L698.8 282.6L698.8 277.2L698.9 271.7L698.9 266.1L699 260.5L699 254.8L699.1 249L699.1 243.2L699.2 237.4L699.2 231.5L699.3 225.7L699.3 219.9L699.4 214L699.4 208L699.5 202.1L699.6 196.1L699.6 190.1L699.7 184L699.7 178L699.8 172.1L699.8 166.2L699.9 160.5L699.9 155L700 149.5L700 144.3L700.1 138.9L700.1 133.4L700.2 128L700.2 122.7L700.3 117.4L700.3 112.4L700.4 107.6L700.4 102.7L700.5 97.9L700.5 93.4L700.6 89L700.6 84.8L700.7 81.3L700.7 77.9L700.8 74"></path><path fill="none" stroke-linecap="butt" stroke-linejoin="round" stroke="#ffffff" id="outline__China" stroke-width="2.5" d="M85.7 513L136.8 513L188 512.9L239.1 512.8L290.3 512.6L341.5 512.2L392.6 511.7L443.8 510.7L495 509.1L546.1 509.1L597.3 495.5L602.4 497.5L607.5 500L612.6 506.4L617.7 504L622.9 501.8L628 497.8L633.1 500.4L638.2 503.2L643.3 501.1L648.4 501.9L653.6 485.6L658.7 481.6L663.8 488.7L668.9 491.3L674 485.2L679.1 483.2L684.3 482.7L684.8 481.3L685.3 476.6L685.8 474.3L686.3 469.4L686.8 458.6L687.3 452.9L687.8 445.9L688.3 428.9L688.9 421.9L689.4 412.3L689.4 411.9L689.5 411.4L689.5 410.9L689.6 410.4L689.6 410L689.7 409.5L689.7 409L689.8 408.5L689.8 408L689.9 407.2L689.9 406.4L690 405.5L690 404.4L690.1 403.3L690.1 402.3L690.2 401.2L690.2 400.1L690.3 399L690.3 397.9L690.4 396.9L690.4 396L690.5 395.1L690.5 394.3L690.6 393.4L690.7 392.6L690.7 391.7L690.8 390.8L690.8 390L690.9 389.3L690.9 388.7L691 388.3L691 388L691.1 387.9L691.1 387.9L691.2 387.8L691.2 387.7L691.3 387.6L691.3 387.5L691.4 387.4L691.4 387.4L691.5 387.3L691.5 387.3L691.6 387.3L691.6 387.3L691.7 387.3L691.7 387.3L691.8 387.3L691.8 387.3L691.9 387.5L691.9 388L692 388.7L692 389.6L692.1 390.7L692.1 391.8L692.2 392.9L692.2 394L692.3 395L692.3 396.1L692.4 397.1L692.4 398L692.5 398.8L692.5 399.5L692.6 400.1L692.6 400.7L692.7 401.3L692.7 401.9L692.8 402.5L692.8 403.1L692.9 403.5L693 403.7L693 403.8L693.1 403.7L693.1 403.4L693.2 403.1L693.2 402.9L693.3 402.6L693.3 402.3L693.4 402L693.4 401.7L693.5 401.4L693.5 401.1L693.6 400.8L693.6 400.4L693.7 400.1L693.7 399.8L693.8 399.4L693.8 399.1L693.9 398.7L693.9 398.3L694 397.9L694 397.4L694.1 396.9L694.1 396.3L694.2 395.8L694.2 395.2L694.3 394.6L694.3 394L694.4 393.4L694.4 392.8L694.5 392.2L694.5 391.6L694.6 390.9L694.6 390.3L694.7 389.6L694.7 388.9L694.8 388.3L694.8 387.6L694.9 386.9L694.9 386.1L695 385.1L695 384L695.1 382.8L695.2 381.4L695.2 379.9L695.3 378.5L695.3 377.1L695.4 375.6L695.4 374.1L695.5 372.7L695.5 371.6L695.6 370.7L695.6 370L695.7 369.5L695.7 369L695.8 368.5L695.8 368L695.9 367.4L695.9 366.9L696 366.3L696 365.7L696.1 364.9L696.1 364.1L696.2 363.2L696.2 362.4L696.3 361.5L696.3 360.6L696.4 359.7L696.4 358.8L696.5 357.9L696.5 357L696.6 356.1L696.6 355.3L696.7 354.4L696.7 353.6L696.8 352.8L696.8 351.9L696.9 351.1L696.9 350.2L697 348.9L697 347L697.1 344L697.1 340.5L697.2 336.7L697.2 332.9L697.3 328.8L697.4 324.8L697.4 320.6L697.5 316.4L697.5 313.8L697.6 313.2L697.6 312.9L697.7 310L697.7 304.1L697.8 297.9L697.8 292.2L697.9 286.4L697.9 280.7L698 274.6L698 268.2L698.1 261.7L698.1 255.4L698.2 249.4L698.2 243.6L698.3 238.2L698.3 233.4L698.4 229L698.4 225L698.5 221.1L698.5 217.1L698.6 212.9L698.6 208.5L698.7 203.6L698.7 198.9L698.8 194.4L698.8 189.5L698.9 184.2L698.9 178.4L699 172.6L699 166.8L699.1 160.9L699.1 155.6L699.2 151.4L699.2 147.5L699.3 143.9L699.3 140.5L699.4 137.2L699.4 134.1L699.5 131.2L699.6 128.3L699.6 125.4L699.7 122.7L699.7 120.2L699.8 117.8L699.8 115.5L699.9 113.1L699.9 110.6L700 108.3L700 105.8L700.1 103.2L700.1 100.4L700.2 97.8L700.2 94.9L700.3 92L700.3 89.3L700.4 86.8L700.4 84.4L700.5 81.9L700.5 79.8L700.6 78.4L700.6 77.7L700.7 77.6L700.7 77.9L700.8 78.7"></path><path fill="none" stroke-linecap="butt" stroke-linejoin="round" stroke="#996d39" id="line__China" stroke-width="1.5" stroke-opacity="1" d="M85.7 513L136.8 513L188 512.9L239.1 512.8L290.3 512.6L341.5 512.2L392.6 511.7L443.8 510.7L495 509.1L546.1 509.1L597.3 495.5L602.4 497.5L607.5 500L612.6 506.4L617.7 504L622.9 501.8L628 497.8L633.1 500.4L638.2 503.2L643.3 501.1L648.4 501.9L653.6 485.6L658.7 481.6L663.8 488.7L668.9 491.3L674 485.2L679.1 483.2L684.3 482.7L684.8 481.3L685.3 476.6L685.8 474.3L686.3 469.4L686.8 458.6L687.3 452.9L687.8 445.9L688.3 428.9L688.9 421.9L689.4 412.3L689.4 411.9L689.5 411.4L689.5 410.9L689.6 410.4L689.6 410L689.7 409.5L689.7 409L689.8 408.5L689.8 408L689.9 407.2L689.9 406.4L690 405.5L690 404.4L690.1 403.3L690.1 402.3L690.2 401.2L690.2 400.1L690.3 399L690.3 397.9L690.4 396.9L690.4 396L690.5 395.1L690.5 394.3L690.6 393.4L690.7 392.6L690.7 391.7L690.8 390.8L690.8 390L690.9 389.3L690.9 388.7L691 388.3L691 388L691.1 387.9L691.1 387.9L691.2 387.8L691.2 387.7L691.3 387.6L691.3 387.5L691.4 387.4L691.4 387.4L691.5 387.3L691.5 387.3L691.6 387.3L691.6 387.3L691.7 387.3L691.7 387.3L691.8 387.3L691.8 387.3L691.9 387.5L691.9 388L692 388.7L692 389.6L692.1 390.7L692.1 391.8L692.2 392.9L692.2 394L692.3 395L692.3 396.1L692.4 397.1L692.4 398L692.5 398.8L692.5 399.5L692.6 400.1L692.6 400.7L692.7 401.3L692.7 401.9L692.8 402.5L692.8 403.1L692.9 403.5L693 403.7L693 403.8L693.1 403.7L693.1 403.4L693.2 403.1L693.2 402.9L693.3 402.6L693.3 402.3L693.4 402L693.4 401.7L693.5 401.4L693.5 401.1L693.6 400.8L693.6 400.4L693.7 400.1L693.7 399.8L693.8 399.4L693.8 399.1L693.9 398.7L693.9 398.3L694 397.9L694 397.4L694.1 396.9L694.1 396.3L694.2 395.8L694.2 395.2L694.3 394.6L694.3 394L694.4 393.4L694.4 392.8L694.5 392.2L694.5 391.6L694.6 390.9L694.6 390.3L694.7 389.6L694.7 388.9L694.8 388.3L694.8 387.6L694.9 386.9L694.9 386.1L695 385.1L695 384L695.1 382.8L695.2 381.4L695.2 379.9L695.3 378.5L695.3 377.1L695.4 375.6L695.4 374.1L695.5 372.7L695.5 371.6L695.6 370.7L695.6 370L695.7 369.5L695.7 369L695.8 368.5L695.8 368L695.9 367.4L695.9 366.9L696 366.3L696 365.7L696.1 364.9L696.1 364.1L696.2 363.2L696.2 362.4L696.3 361.5L696.3 360.6L696.4 359.7L696.4 358.8L696.5 357.9L696.5 357L696.6 356.1L696.6 355.3L696.7 354.4L696.7 353.6L696.8 352.8L696.8 351.9L696.9 351.1L696.9 350.2L697 348.9L697 347L697.1 344L697.1 340.5L697.2 336.7L697.2 332.9L697.3 328.8L697.4 324.8L697.4 320.6L697.5 316.4L697.5 313.8L697.6 313.2L697.6 312.9L697.7 310L697.7 304.1L697.8 297.9L697.8 292.2L697.9 286.4L697.9 280.7L698 274.6L698 268.2L698.1 261.7L698.1 255.4L698.2 249.4L698.2 243.6L698.3 238.2L698.3 233.4L698.4 229L698.4 225L698.5 221.1L698.5 217.1L698.6 212.9L698.6 208.5L698.7 203.6L698.7 198.9L698.8 194.4L698.8 189.5L698.9 184.2L698.9 178.4L699 172.6L699 166.8L699.1 160.9L699.1 155.6L699.2 151.4L699.2 147.5L699.3 143.9L699.3 140.5L699.4 137.2L699.4 134.1L699.5 131.2L699.6 128.3L699.6 125.4L699.7 122.7L699.7 120.2L699.8 117.8L699.8 115.5L699.9 113.1L699.9 110.6L700 108.3L700 105.8L700.1 103.2L700.1 100.4L700.2 97.8L700.2 94.9L700.3 92L700.3 89.3L700.4 86.8L700.4 84.4L700.5 81.9L700.5 79.8L700.6 78.4L700.6 77.7L700.7 77.6L700.7 77.9L700.8 78.7"></path><path fill="none" stroke-linecap="butt" stroke-linejoin="round" stroke="#ffffff" id="outline__Brazil" stroke-width="2.5" d="M85.7 513L136.8 512.9L188 512.9L239.1 512.8L290.3 512.7L341.5 512.6L392.6 512.5L443.8 512.2L495 512L546.1 511.6L597.3 511.2L602.4 511L607.5 510.9L612.6 510.7L617.7 510.6L622.9 510.4L628 510.2L633.1 510L638.2 509.8L643.3 509.7L648.4 509.6L653.6 509.3L658.7 508.9L663.8 508.5L668.9 508.1L674 507.4L679.1 512.8L684.3 512.9L684.8 512.9L685.3 512.9L685.8 512.8L686.3 512.8L686.8 512.7L687.3 512.7L687.8 512.6L688.3 512.5L688.9 512.4L689.4 512.3L689.4 512.3L689.5 512.3L689.5 512.3L689.6 512.2L689.6 512.2L689.7 512.2L689.7 512.2L689.8 512.1L689.8 512.1L689.9 512.1L689.9 512L690 512L690 512L690.1 511.9L690.1 511.9L690.2 511.9L690.2 511.8L690.3 511.8L690.3 511.8L690.4 511.7L690.4 511.7L690.5 511.7L690.5 511.7L690.6 511.6L690.7 511.6L690.7 511.6L690.8 511.6L690.8 511.5L690.9 511.5L690.9 511.5L691 511.5L691 511.4L691.1 511.4L691.1 511.4L691.2 511.4L691.2 511.3L691.3 511.3L691.3 511.3L691.4 511.2L691.4 511.2L691.5 511.2L691.5 511.2L691.6 511.1L691.6 511.1L691.7 511.1L691.7 511L691.8 511L691.8 511L691.9 510.9L691.9 510.9L692 510.9L692 510.8L692.1 510.8L692.1 510.8L692.2 510.7L692.2 510.7L692.3 510.6L692.3 510.6L692.4 510.6L692.4 510.5L692.5 510.5L692.5 510.4L692.6 510.4L692.6 510.4L692.7 510.3L692.7 510.3L692.8 510.2L692.8 510.2L692.9 510.1L693 510.1L693 510L693.1 510L693.1 509.9L693.2 509.9L693.2 509.8L693.3 509.7L693.3 509.7L693.4 509.6L693.4 509.6L693.5 509.5L693.5 509.4L693.6 509.3L693.6 509.3L693.7 509.2L693.7 509.1L693.8 509.1L693.8 509L693.9 508.9L693.9 508.8L694 508.7L694 508.6L694.1 508.5L694.1 508.4L694.2 508.3L694.2 508.2L694.3 508.1L694.3 508L694.4 507.8L694.4 507.7L694.5 507.6L694.5 507.5L694.6 507.3L694.6 507.2L694.7 507.1L694.7 507L694.8 506.8L694.8 506.7L694.9 506.6L694.9 506.4L695 506.3L695 506.1L695.1 506L695.2 505.8L695.2 505.7L695.3 505.5L695.3 505.4L695.4 505.2L695.4 505L695.5 504.8L695.5 504.7L695.6 504.5L695.6 504.3L695.7 504.1L695.7 504L695.8 503.8L695.8 503.6L695.9 503.4L695.9 503.2L696 503L696 502.8L696.1 502.6L696.1 502.3L696.2 502.1L696.2 501.9L696.3 501.7L696.3 501.4L696.4 501.2L696.4 501L696.5 500.7L696.5 500.4L696.6 500.1L696.6 499.8L696.7 499.4L696.7 499.1L696.8 498.7L696.8 498.3L696.9 497.9L696.9 497.5L697 497.1L697 496.8L697.1 496.3L697.1 495.8L697.2 495.3L697.2 494.7L697.3 494.1L697.4 493.5L697.4 492.9L697.5 492.3L697.5 491.7L697.6 491L697.6 490.3L697.7 489.6L697.7 488.9L697.8 488.2L697.8 487.5L697.9 486.8L697.9 486.1L698 485.4L698 484.7L698.1 484L698.1 483.3L698.2 482.5L698.2 481.8L698.3 481L698.3 480.2L698.4 479.4L698.4 478.6L698.5 477.8L698.5 477L698.6 476.1L698.6 475.2L698.7 474.3L698.7 473.5L698.8 472.6L698.8 471.7L698.9 470.9L698.9 470L699 469.2L699 468.4L699.1 467.6L699.1 466.8L699.2 466L699.2 465.2L699.3 464.5L699.3 463.7L699.4 463L699.4 462.2L699.5 461.4L699.6 460.7L699.6 460L699.7 459.3L699.7 458.6L699.8 457.9L699.8 457.3L699.9 456.7L699.9 456.1L700 455.5L700 455L700.1 454.5L700.1 454L700.2 453.5L700.2 453L700.3 452.5L700.3 452L700.4 451.5L700.4 451L700.5 450.6L700.5 450.2L700.6 449.8L700.6 449.4L700.7 449.1L700.7 448.9L700.8 448.6"></path><path fill="none" stroke-linecap="butt" stroke-linejoin="round" stroke="#b13507" id="line__Brazil" stroke-width="1.5" stroke-opacity="1" d="M85.7 513L136.8 512.9L188 512.9L239.1 512.8L290.3 512.7L341.5 512.6L392.6 512.5L443.8 512.2L495 512L546.1 511.6L597.3 511.2L602.4 511L607.5 510.9L612.6 510.7L617.7 510.6L622.9 510.4L628 510.2L633.1 510L638.2 509.8L643.3 509.7L648.4 509.6L653.6 509.3L658.7 508.9L663.8 508.5L668.9 508.1L674 507.4L679.1 512.8L684.3 512.9L684.8 512.9L685.3 512.9L685.8 512.8L686.3 512.8L686.8 512.7L687.3 512.7L687.8 512.6L688.3 512.5L688.9 512.4L689.4 512.3L689.4 512.3L689.5 512.3L689.5 512.3L689.6 512.2L689.6 512.2L689.7 512.2L689.7 512.2L689.8 512.1L689.8 512.1L689.9 512.1L689.9 512L690 512L690 512L690.1 511.9L690.1 511.9L690.2 511.9L690.2 511.8L690.3 511.8L690.3 511.8L690.4 511.7L690.4 511.7L690.5 511.7L690.5 511.7L690.6 511.6L690.7 511.6L690.7 511.6L690.8 511.6L690.8 511.5L690.9 511.5L690.9 511.5L691 511.5L691 511.4L691.1 511.4L691.1 511.4L691.2 511.4L691.2 511.3L691.3 511.3L691.3 511.3L691.4 511.2L691.4 511.2L691.5 511.2L691.5 511.2L691.6 511.1L691.6 511.1L691.7 511.1L691.7 511L691.8 511L691.8 511L691.9 510.9L691.9 510.9L692 510.9L692 510.8L692.1 510.8L692.1 510.8L692.2 510.7L692.2 510.7L692.3 510.6L692.3 510.6L692.4 510.6L692.4 510.5L692.5 510.5L692.5 510.4L692.6 510.4L692.6 510.4L692.7 510.3L692.7 510.3L692.8 510.2L692.8 510.2L692.9 510.1L693 510.1L693 510L693.1 510L693.1 509.9L693.2 509.9L693.2 509.8L693.3 509.7L693.3 509.7L693.4 509.6L693.4 509.6L693.5 509.5L693.5 509.4L693.6 509.3L693.6 509.3L693.7 509.2L693.7 509.1L693.8 509.1L693.8 509L693.9 508.9L693.9 508.8L694 508.7L694 508.6L694.1 508.5L694.1 508.4L694.2 508.3L694.2 508.2L694.3 508.1L694.3 508L694.4 507.8L694.4 507.7L694.5 507.6L694.5 507.5L694.6 507.3L694.6 507.2L694.7 507.1L694.7 507L694.8 506.8L694.8 506.7L694.9 506.6L694.9 506.4L695 506.3L695 506.1L695.1 506L695.2 505.8L695.2 505.7L695.3 505.5L695.3 505.4L695.4 505.2L695.4 505L695.5 504.8L695.5 504.7L695.6 504.5L695.6 504.3L695.7 504.1L695.7 504L695.8 503.8L695.8 503.6L695.9 503.4L695.9 503.2L696 503L696 502.8L696.1 502.6L696.1 502.3L696.2 502.1L696.2 501.9L696.3 501.7L696.3 501.4L696.4 501.2L696.4 501L696.5 500.7L696.5 500.4L696.6 500.1L696.6 499.8L696.7 499.4L696.7 499.1L696.8 498.7L696.8 498.3L696.9 497.9L696.9 497.5L697 497.1L697 496.8L697.1 496.3L697.1 495.8L697.2 495.3L697.2 494.7L697.3 494.1L697.4 493.5L697.4 492.9L697.5 492.3L697.5 491.7L697.6 491L697.6 490.3L697.7 489.6L697.7 488.9L697.8 488.2L697.8 487.5L697.9 486.8L697.9 486.1L698 485.4L698 484.7L698.1 484L698.1 483.3L698.2 482.5L698.2 481.8L698.3 481L698.3 480.2L698.4 479.4L698.4 478.6L698.5 477.8L698.5 477L698.6 476.1L698.6 475.2L698.7 474.3L698.7 473.5L698.8 472.6L698.8 471.7L698.9 470.9L698.9 470L699 469.2L699 468.4L699.1 467.6L699.1 466.8L699.2 466L699.2 465.2L699.3 464.5L699.3 463.7L699.4 463L699.4 462.2L699.5 461.4L699.6 460.7L699.6 460L699.7 459.3L699.7 458.6L699.8 457.9L699.8 457.3L699.9 456.7L699.9 456.1L700 455.5L700 455L700.1 454.5L700.1 454L700.2 453.5L700.2 453L700.3 452.5L700.3 452L700.4 451.5L700.4 451L700.5 450.6L700.5 450.2L700.6 449.8L700.6 449.4L700.7 449.1L700.7 448.9L700.8 448.6"></path></g></g><g id="footer" class="SourcesFooter" style="fill:#5b5b5b"><g id="sources" class="markdown-text-wrap"><text x="16.0" y="562.7" style="font-size:13.5px;line-height:1.2"><tspan x="16" y="562.7"><tspan style="font-weight:700">Data source:</tspan> HYDE (2023); Gapminder (2022); UN WPP (2024)</tspan></text></g><g id="note" class="markdown-text-wrap"><text x="16.0" y="580.9" style="font-size:13.5px;line-height:1.2"><tspan x="16" y="580.9"><tspan style="font-weight:700">Note:</tspan> Historical country data is shown based on today&#x27;s geographical borders.</tspan></text></g><text id="origin-url" font-size="13.50" x="549.8" y="562.7"><tspan x="549.825" y="562.695"><a target="_blank" style="fill: #5b5b5b;" href="https://ourworldindata.org/population-growth/">OurWorldinData.org/population-growth</a> | <a target="_blank" style="fill: #5b5b5b;" href="https://creativecommons.org/licenses/by/4.0/">CC BY</a></tspan></text></g></svg>